<svg width="104.836" height="54" viewBox="0 0 104.836 54" fill="none" xmlns="http://www.w3.org/2000/svg">
<g id="mouv_up logo_Plan de travail 1-01 1 [Vectorized]">
<path id="Vector" d="M57.336 27.2066L61.1592 27.1968C63.5159 27.1924 66.1078 27.0585 68.1138 28.3811C71.5769 30.664 71.0079 36.4354 67.0639 37.8779C66.4121 38.1164 65.9881 38.2186 65.3194 38.3498C64.0607 38.5665 61.048 38.5471 59.7043 38.4949C59.766 40.0696 59.6827 41.8122 59.7185 43.4175C59.2212 43.3376 57.8712 43.325 57.3676 43.4328V32.574L57.3692 29.2161C57.3687 28.601 57.395 27.7951 57.336 27.2066ZM59.6911 36.5049C62.1074 36.4118 65.0805 36.9153 66.9901 35.4225C67.7631 34.6548 67.9957 33.997 68.0094 32.9234C68.0685 28.298 62.6832 29.3932 59.7053 29.2103C59.7575 31.363 59.7591 34.3533 59.6911 36.5049Z" fill="var(--fill-0, #232325)"/>
<path id="Vector_2" d="M60.4589 13.128C64.0738 12.6171 67.414 15.1446 67.905 18.7622C68.3965 22.3797 65.8505 25.7062 62.2302 26.1773C58.638 26.6448 55.3426 24.123 54.8559 20.5334C54.3686 16.9439 56.8719 13.6349 60.4589 13.128ZM61.5684 24.0209C63.9847 23.9111 65.8531 21.8599 65.7371 19.4436C65.6211 17.0274 63.565 15.1646 61.1487 15.287C58.7419 15.4088 56.8872 17.4557 57.0027 19.8631C57.1187 22.2706 59.1606 24.1303 61.5684 24.0209Z" fill="var(--fill-0, #232325)"/>
<path id="Vector_3" d="M26.7807 25.5927C28.795 25.5224 31.4883 27.9497 32.8572 29.3627C33.4023 29.9255 33.8442 30.9104 34.5995 31.4455C35.3493 31.9766 36.6433 31.657 37.0747 32.0287C37.4932 33.0365 34.6632 34.1067 33.7362 33.7146C32.4211 33.1582 32.3498 32.1244 31.7066 31.04C30.944 29.7542 29.732 28.7042 28.2896 28.3159C25.8494 27.6385 25.771 30.6407 23.8407 31.6623C22.5733 32.3331 20.8847 32.2423 19.5546 31.8776C20.6653 32.7973 22.6485 32.956 21.6354 35.0687C20.8471 36.7124 19.2979 37.3019 17.5612 37.3457C16.0532 37.3446 14.5671 37.2547 13.0771 37.5297C11.0991 37.8948 11.7067 39.5771 11.1515 40.4877C11.0461 40.5388 11.0202 40.5323 10.9056 40.5036C10.5383 40.4119 10.2582 40.1653 10.0667 39.8449C9.74573 39.308 9.62044 38.5774 9.78049 37.973C9.9495 37.335 10.3826 36.7573 10.8753 36.3289C13.4608 34.0811 17.2421 35.6825 18.1154 35.1645C18.0412 34.7802 16.3067 33.8858 15.8594 33.6004C15.547 33.3993 15.2489 33.1769 14.9673 32.9346C12.8806 31.1222 13.5654 28.5981 15.1788 26.7154C15.2914 26.584 15.4101 26.4377 15.5921 26.4259C15.7266 26.5746 15.702 26.8207 15.7631 27.0678C15.9208 27.7058 16.313 28.1695 16.8701 28.5051C18.8953 29.7247 21.368 28.6391 23.1863 27.5317C24.6994 26.6102 24.9806 26.0504 26.7807 25.5927Z" fill="var(--fill-0, #232325)"/>
<path id="Vector_4" d="M39.0064 13.4898C39.6571 13.4926 40.294 13.4907 40.9441 13.5287C41.2054 13.8246 41.8869 15.0497 42.1386 15.4695L44.42 19.2827C44.6108 19.6031 45.694 21.523 45.8781 21.5584C45.9739 21.4691 46.5302 20.4179 46.6579 20.2007L49.147 15.9877C49.5241 15.3433 50.2119 14.0814 50.6333 13.5149C51.1985 13.4735 51.9775 13.498 52.5737 13.4803C52.4785 14.8469 52.5392 16.8532 52.546 18.2591C52.5417 20.809 52.5751 23.3587 52.6461 25.9076C52.0868 25.8128 51.0168 25.8615 50.4174 25.8799L50.416 21.2783C50.4112 20.722 50.4833 18.0955 50.3348 17.7678C50.079 17.8983 46.8915 23.8731 46.2564 24.4263C45.9908 24.6576 45.3165 24.5349 45.1073 24.1998C44.6727 23.5038 44.2507 22.8068 43.8274 22.1045C42.9627 20.6605 42.0903 19.2212 41.21 17.7866C41.4385 19.8135 41.1468 22.2707 41.2629 24.3334C41.2919 24.8495 41.2549 25.3756 41.2891 25.9067C40.8077 25.8326 39.5025 25.8152 39.0166 25.9189C39.0714 21.8481 39.0261 17.5699 39.0064 13.4898Z" fill="var(--fill-0, #232325)"/>
<path id="Vector_5" d="M40.9074 27.1841L41.3662 27.1805C41.2931 28.8153 41.3845 30.7488 41.3571 32.4221C41.3873 34.0572 41.2896 35.7331 41.4217 37.3608C41.6696 40.4175 43.7765 41.7911 46.6884 41.4088C50.475 40.9116 50.4149 37.6728 50.4063 34.6982L50.4071 31.5173C50.4078 30.3986 50.4772 28.1653 50.374 27.2001C51.1178 27.2187 51.9218 27.1858 52.6809 27.1925C52.6294 28.4041 52.6569 29.7606 52.6563 30.9814L52.659 34.7726C52.6607 37.2207 52.8013 39.4645 51.091 41.4866C50.0027 42.7732 48.2774 43.391 46.6329 43.4901C44.6336 43.6387 42.7292 43.338 41.1601 41.9946C38.9011 40.0608 39.0109 37.2163 39.0124 34.5063L39.0161 29.8567C39.0167 29.0594 39.0472 27.9706 38.9908 27.2022C39.5831 27.2224 40.3041 27.1943 40.9074 27.1841Z" fill="var(--fill-0, #232325)"/>
<path id="Vector_6" d="M78.6607 13.476C79.3969 13.5125 80.2185 13.4946 80.962 13.4921C80.9103 14.0052 80.9267 14.8793 80.923 15.4248C80.9177 16.5175 80.9193 17.6102 80.9272 18.7029C80.9346 20.732 81.0654 22.9778 79.5224 24.5649C78.4276 25.6645 76.9669 26.0342 75.465 26.0468C72.9881 26.0677 70.7737 24.8171 70.2306 22.2839C69.9374 20.9145 70.0196 19.5007 70.0202 18.1034L70.0138 13.4903C70.798 13.4971 71.6212 13.5163 72.4006 13.4797C72.3927 13.574 72.3869 13.6685 72.3827 13.7631C72.3257 15.19 72.3674 16.6784 72.3632 18.1087C72.3563 20.5599 71.9281 23.9558 75.416 24.0091C79.0388 24.0645 78.6781 20.5252 78.6744 17.9596L78.6607 13.476Z" fill="var(--fill-0, #232325)"/>
<path id="Vector_7" d="M82.0515 13.4962C82.8151 13.4931 83.7728 13.4662 84.5184 13.5245C84.8074 13.9185 85.7841 16.3059 86.0351 16.8995C86.8936 18.9319 87.8249 20.9715 88.6765 23.003C88.9334 22.1518 89.7908 20.3285 90.18 19.4453L92.794 13.5063C93.478 13.4669 94.4736 13.4963 95.1729 13.4982C94.8544 14.0155 94.4093 15.1479 94.153 15.7534L91.047 22.8613C90.6272 23.8311 90.1151 24.9078 89.7349 25.8739C88.9629 25.8658 88.1914 25.8635 87.4194 25.8669C86.2007 22.864 84.7568 19.8823 83.5175 16.8834C83.1505 15.9958 82.2988 14.302 82.0515 13.4962Z" fill="var(--fill-0, #232325)"/>
<path id="Vector_8" d="M16.7288 13.9973C17.0708 13.9822 17.6741 14.1317 18.0082 14.2195C20.3959 14.8473 20.1679 16.9982 21.6514 18.4482C22.3396 19.1149 23.3842 19.0936 24.17 19.5303C25.1769 20.0901 25.0559 21.9244 24.5079 22.7513C23.8054 23.8115 22.28 23.8799 21.2779 23.2017C20.4344 22.6308 20.328 21.8065 20.1317 20.895C19.6878 19.0152 18.6403 16.3528 16.4861 15.9732C15.009 15.7206 13.3357 16.3103 12.5084 17.5942C12.3564 17.8301 12.034 18.4621 11.732 18.406C11.6971 18.3506 11.6676 18.288 11.6644 18.2216C11.5217 15.3158 14.347 14.2764 16.7288 13.9973Z" fill="var(--fill-0, #232325)"/>
<path id="Vector_9" d="M26.7649 15.4638C28.8041 15.4115 30.6518 17.073 30.0403 19.2338C29.7018 20.429 28.9043 21.442 27.822 22.0516C27.6487 22.1202 27.2395 22.2252 27.0844 22.1652C26.59 21.9738 26.5378 20.3749 26.3407 19.7344C25.9225 18.3762 25.0437 17.7904 24.4684 16.7706C24.9265 15.7925 25.8094 15.6409 26.7649 15.4638Z" fill="var(--fill-0, #232325)"/>
</g>
</svg>
